<?xml version="1.0" encoding="UTF-8" standalone="no"?>
<!-- Created with Inkscape (http://www.inkscape.org/) -->

<svg
   width="64mm"
   height="64mm"
   viewBox="0 0 64 64"
   version="1.1"
   id="svg5"
   sodipodi:docname="icon.svg"
   inkscape:version="1.2.2 (732a01da63, 2022-12-09)"
   xmlns:inkscape="http://www.inkscape.org/namespaces/inkscape"
   xmlns:sodipodi="http://sodipodi.sourceforge.net/DTD/sodipodi-0.dtd"
   xmlns="http://www.w3.org/2000/svg"
   xmlns:svg="http://www.w3.org/2000/svg">
  <sodipodi:namedview
     id="namedview13"
     pagecolor="#ffffff"
     bordercolor="#666666"
     borderopacity="1.0"
     inkscape:showpageshadow="2"
     inkscape:pageopacity="0.0"
     inkscape:pagecheckerboard="0"
     inkscape:deskcolor="#d1d1d1"
     inkscape:document-units="mm"
     showgrid="false"
     inkscape:zoom="1.9513021"
     inkscape:cx="269.81983"
     inkscape:cy="230.359"
     inkscape:window-width="2560"
     inkscape:window-height="1361"
     inkscape:window-x="-9"
     inkscape:window-y="-9"
     inkscape:window-maximized="1"
     inkscape:current-layer="svg5" />
  <defs
     id="defs2" />
  <text
     xml:space="preserve"
     style="font-size:16px;line-height:1.25;font-family:'Varela Round';-inkscape-font-specification:'Varela Round';letter-spacing:0px;word-spacing:0px;stroke-width:0.264583"
     x="34.120113"
     y="51.328114"
     id="text850"><tspan
       sodipodi:role="line"
       id="tspan848"
       style="font-size:16px;stroke-width:0.264583"
       x="34.120113"
       y="51.328114">QR</tspan></text>
  <g
     id="layer1">
    <rect
       style="fill:#808212;fill-opacity:1;stroke-width:1;stroke-linecap:round;stroke-linejoin:round;paint-order:markers fill stroke"
       id="rect13269"
       width="64"
       height="64"
       x="0"
       y="0"
       ry="20" />
    <path
       id="rect13273"
       style="fill:#9c9e38;fill-opacity:1;stroke-width:1;stroke-linecap:round;stroke-linejoin:round;paint-order:markers fill stroke"
       d="M 19.999813 0 C 8.9198239 -2.5066344e-15 0 8.9198239 0 19.999813 L 0 43.999898 C -2.5066344e-15 55.079887 8.9198239 64.000228 19.999813 64.000228 L 32.000114 64.000228 L 32.000114 0 L 19.999813 0 z " />
    <path
       id="rect13340"
       style="fill:#f8f9ae;fill-opacity:1;stroke-width:1;stroke-linecap:round;stroke-linejoin:round;paint-order:markers fill stroke"
       d="M 0 32.000114 L 0 43.999898 C -2.5066344e-15 55.079887 8.9198239 64.000228 19.999813 64.000228 L 43.999898 64.000228 C 55.079887 64.000228 64.000228 55.079887 64.000228 43.999898 L 64.000228 32.000114 L 0 32.000114 z " />
    <path
       id="path13335"
       style="fill:#b1b339;fill-opacity:1;stroke-width:1;stroke-linecap:round;stroke-linejoin:round;paint-order:markers fill stroke"
       d="M 0 32.000114 L 0 43.999898 C -2.5066319e-15 55.079876 8.9198348 64.000228 19.999813 64.000228 L 32.000114 64.000228 L 32.000114 32.000114 L 0 32.000114 z " />
    <text
       xml:space="preserve"
       style="font-size:12px;line-height:1.25;font-family:'Varela Round';-inkscape-font-specification:'Varela Round';letter-spacing:0px;word-spacing:0px;stroke-width:0.264583"
       x="41.907864"
       y="43.59166"
       id="text13451"><tspan
         id="tspan13449"
         style="font-size:12px;stroke-width:0.264583"
         x="41.907864"
         y="43.59166" /></text>
  </g>
  <g
     aria-label="QR"
     id="text1021"
     style="font-size:16px;line-height:1.25;font-family:'Varela Round';-inkscape-font-specification:'Varela Round';letter-spacing:0px;word-spacing:0px;stroke-width:0.264583;fill:#9c9e38;fill-opacity:1;stroke:none;stroke-opacity:1">
    <path
       d="m 43.832113,53.760114 q -0.304,0 -0.512,-0.256 l -1.744,-2.08 q -0.4,0.064 -0.96,0.064 -1.68,0 -2.944,-0.736 -1.264,-0.736 -1.952,-2.032 -0.688,-1.296 -0.72,-2.976 0.032,-1.68 0.72,-2.976 0.688,-1.296 1.952,-2.032 1.264,-0.736 2.944,-0.736 1.68,0 2.928,0.736 1.264,0.736 1.952,2.048 0.704,1.296 0.736,2.96 -0.032,1.872 -0.912,3.28 -0.864,1.392 -2.4,2.032 l 1.408,1.552 q 0.192,0.192 0.192,0.464 0.016,0.272 -0.192,0.48 -0.208,0.208 -0.496,0.208 z m -3.216,-3.632 q 1.28,0 2.224,-0.576 0.944,-0.576 1.44,-1.568 0.496,-0.992 0.496,-2.24 0,-1.248 -0.496,-2.24 -0.496,-0.992 -1.44,-1.568 -0.944,-0.576 -2.224,-0.576 -1.296,0 -2.24,0.576 -0.928,0.576 -1.424,1.568 -0.496,0.992 -0.496,2.24 0,1.248 0.496,2.24 0.496,0.992 1.424,1.568 0.944,0.576 2.24,0.576 z"
       id="path1023"
       style="fill:#9c9e38;fill-opacity:1;stroke:none;stroke-opacity:1" />
    <path
       d="m 49.384118,51.408114 q -0.304,0 -0.512,-0.208 -0.208,-0.208 -0.208,-0.512 v -9.792 q 0,-0.304 0.208,-0.512 0.208,-0.224 0.512,-0.224 h 3.728 q 2.176,0 3.264,0.896 1.088,0.896 1.088,2.352 0,0.96 -0.544,1.76 -0.528,0.784 -1.552,1.136 1.152,0.304 1.568,1.44 0.432,1.12 0.432,2.208 v 0.736 q 0,0.304 -0.208,0.512 -0.208,0.208 -0.512,0.208 -0.336,0 -0.544,-0.192 -0.192,-0.208 -0.192,-0.528 v -0.48 q 0,-0.8 -0.144,-1.472 -0.144,-0.688 -0.688,-1.216 -0.544,-0.544 -1.648,-0.544 h -3.312 v 3.712 q 0,0.304 -0.224,0.512 -0.208,0.208 -0.512,0.208 z m 3.632,-5.808 q 1.376,0 2.176,-0.544 0.816,-0.544 0.816,-1.536 0,-0.96 -0.704,-1.472 -0.688,-0.512 -2.368,-0.512 h -2.816 v 4.064 z"
       id="path1025"
       style="fill:#9c9e38;fill-opacity:1;stroke:none;stroke-opacity:1" />
  </g>
</svg>
